Coordinates
version=1
nRows=21
nColumns=12
inDegrees=yes

Units are S.I. units (second, meters, Newtons, ...)
Angles are in degrees

endheader
time	SC_y	SC_z	SC_x	AC_y	AC_z	AC_x	GH_y	GH_z	GH_yy	EL_x	PS_y
       0.0              -19.56          38.46           5.44          59.79         0.3691        -0.9709          24.34          70.25         -121.7          103.1          68.16
 7.682e-06              -19.57          38.46          5.443          59.78         0.3704        -0.9712          24.36          70.25         -121.6          103.1          68.16
 1.536e-05              -19.57          38.45          5.446          59.78         0.3719        -0.9715          24.37          70.26         -121.6          103.1          68.17
 2.305e-05              -19.57          38.45          5.449          59.78         0.3735        -0.9719          24.39          70.26         -121.6          103.1          68.18
 3.073e-05              -19.57          38.44          5.452          59.77         0.3751        -0.9722          24.41          70.26         -121.5          103.1          68.19
 3.841e-05              -19.57          38.44          5.456          59.77         0.3769        -0.9726          24.43          70.26         -121.5          103.0          68.19
 4.609e-05              -19.58          38.43          5.459          59.76         0.3788         -0.973          24.45          70.27         -121.4          103.0           68.2
 5.377e-05              -19.58          38.43          5.463          59.76         0.3808        -0.9735          24.48          70.27         -121.4          103.0          68.21
 6.145e-05              -19.58          38.42          5.467          59.76          0.383        -0.9739           24.5          70.27         -121.4          103.0          68.23
 6.914e-05              -19.58          38.41          5.472          59.75         0.3853        -0.9744          24.53          70.28         -121.3          103.0          68.24
 7.682e-05              -19.59          38.41          5.477          59.75         0.3879         -0.975          24.55          70.28         -121.2          103.0          68.25
  8.45e-05              -19.59           38.4          5.482          59.74         0.3905        -0.9755          24.58          70.29         -121.2          103.0          68.26
 9.218e-05              -19.59          38.39          5.487          59.73         0.3934        -0.9762          24.62          70.29         -121.1          103.0          68.28
 9.986e-05               -19.6          38.38          5.494          59.73         0.3966        -0.9768          24.65           70.3         -121.0          103.0          68.29
 0.0001075               -19.6          38.37            5.5          59.72            0.4        -0.9776          24.69           70.3         -121.0          103.0          68.31
 0.0001152              -19.61          38.36          5.507          59.71         0.4037        -0.9784          24.73          70.31         -120.9          102.9          68.33
 0.0001229              -19.61          38.35          5.515           59.7         0.4077        -0.9792          24.78          70.32         -120.8          102.9          68.35
 0.0001306              -19.62          38.33          5.523           59.7          0.412        -0.9802          24.82          70.32         -120.7          102.9          68.37
 0.0001383              -19.62          38.32          5.532          59.69         0.4168        -0.9812          24.88          70.33         -120.6          102.9          68.39
  0.000146              -19.63           38.3          5.543          59.68          0.422        -0.9823          24.94          70.34         -120.4          102.9          68.42
 0.0001536              -19.64          38.29          5.554          59.66         0.4277        -0.9835           25.0          70.35         -120.3          102.8          68.45
